<svg xmlns="http://www.w3.org/2000/svg" width="50.844" height="61.999" viewBox="0 0 50.844 61.999">
  <defs>
    <style>
      .cls-1 {
        fill: #f8f8f8;
      }
    </style>
  </defs>
  <g id="apple" transform="translate(0.006)">
    <path id="Path_2188" data-name="Path 2188" class="cls-1" d="M62.883,165.569c-9.227-.053-16.866-18.848-16.866-28.419,0-15.628,11.76-19.059,16.284-19.059a18.771,18.771,0,0,1,6.145,1.509,13.756,13.756,0,0,0,3.508,1,10.936,10.936,0,0,0,2.518-.814,20.207,20.207,0,0,1,7.582-1.831h.017a15.562,15.562,0,0,1,13.012,6.558l.949,1.424-1.366,1.029c-1.951,1.468-5.512,4.148-5.512,9.456a10.677,10.677,0,0,0,5.968,9.867c.856.514,1.739,1.043,1.739,2.2,0,.755-6.046,16.984-14.822,16.984a11.941,11.941,0,0,1-5.006-1.212,10.167,10.167,0,0,0-4.455-1.071,11.478,11.478,0,0,0-3.528.952,17.313,17.313,0,0,1-6.12,1.425Z" transform="translate(-46.022 -103.573)"/>
    <path id="Path_2189" data-name="Path 2189" class="cls-1" d="M266.885,0c.231,8.3-5.707,14.061-11.638,13.7C254.27,7.075,261.178,0,266.885,0Z" transform="translate(-229.883)"/>
  </g>
</svg>
