<svg xmlns="http://www.w3.org/2000/svg" width="55.074" height="61.2" viewBox="0 0 55.074 61.2">
  <defs>
    <style>
      .cls-1 {
        fill: #fbfbfb;
      }
    </style>
  </defs>
  <g id="date" transform="translate(19314.563 12685)">
    <path id="outline-expand-more" class="cls-1" d="M59.574,58.075V15.24a6.123,6.123,0,0,0-6.119-6.119H47.342V3H41.216V9.119H22.858V3H16.74V9.119H10.619A6.123,6.123,0,0,0,4.5,15.24V58.082A6.123,6.123,0,0,0,10.619,64.2H53.461a6.123,6.123,0,0,0,6.114-6.126ZM22.858,51.954H16.74V45.842h6.119Zm0-12.24H16.74V33.6h6.119ZM35.1,51.954H28.977V45.842H35.1Zm0-12.24H28.977V33.6H35.1Zm12.244,12.24H41.216V45.842h6.126Zm0-12.24H41.216V33.6h6.126Zm6.119-15.3H10.619V18.3H53.461Z" transform="translate(-19319.063 -12688)"/>
  </g>
</svg>
