<svg xmlns="http://www.w3.org/2000/svg" width="55.137" height="72.103" viewBox="0 0 55.137 72.103">
  <defs>
    <style>
      .cls-1 {
        fill: #d8403d;
      }
    </style>
  </defs>
  <g id="delete" transform="translate(-60)">
    <path id="XMLID_1476_" class="cls-1" d="M96.267,207.73a6.347,6.347,0,0,0,6.355,6.045h25.794a6.346,6.346,0,0,0,6.355-6.045L138.485,165H92.552ZM121.88,175.6h4.241v23.32H121.88Zm-8.483,0h4.241v23.32H113.4Zm-8.483,0h4.241v23.32h-4.241Z" transform="translate(-27.95 -141.673)"/>
    <path id="XMLID_1481_" class="cls-1" d="M98.172,10.6V6.362A6.377,6.377,0,0,0,91.81,0H83.32a6.377,6.377,0,0,0-6.362,6.362V10.6H60v8.483h55.137V10.6Zm-16.965,0V6.362A2.122,2.122,0,0,1,83.32,4.241h8.49a2.122,2.122,0,0,1,2.121,2.121V10.6Z"/>
  </g>
</svg>
